<?xml version="1.0" encoding="utf-8"?>
<!-- Generator: Adobe Illustrator 21.1.0, SVG Export Plug-In . SVG Version: 6.00 Build 0)  -->
<svg version="1.1" id="Layer_1" xmlns="http://www.w3.org/2000/svg" xmlns:xlink="http://www.w3.org/1999/xlink" x="0px" y="0px"
	 viewBox="0 0 100 100" enable-background="new 0 0 100 100" xml:space="preserve">
<g>
	<path fill="#F1B57D" d="M49.512,94.49c0,0,5.882-34.885,44.983-34.885V94.49H49.512z"/>
	<path fill="#FEE36F" d="M31.089,9.736C25.911,22.26,37.36,46.421,37.36,46.421c1.593-6.135,9.148-10.455,9.148-10.455
		s7.449-4.499,13.585-2.906C60.093,33.061,44.552,11.305,31.089,9.736z"/>
	<path fill="#3792CF" d="M31.089,9.736c0,0-23.317,13.016-14.324,44.316c0,0,6.775-10.978,20.595-7.631
		C37.36,46.421,25.911,22.26,31.089,9.736z"/>
	<path fill="#F0566F" d="M31.089,9.736c0,0,22.716-14.039,45.69,9.045c0,0-12.888,0.579-16.687,14.28
		C60.093,33.061,44.552,11.305,31.089,9.736z"/>
	<path fill="#FFFFFF" d="M31.089,9.736c0,0,0.947-0.585,2.647-1.319c-0.03-0.061-0.06-0.122-0.095-0.181
		c-0.829-1.41-2.643-1.881-4.053-1.052c-1.41,0.829-1.881,2.643-1.052,4.053c0.035,0.059,0.074,0.115,0.112,0.171
		C30.118,10.279,31.089,9.736,31.089,9.736z"/>
	<g>
		<path fill="#136296" d="M37.36,46.926c-0.194,0-0.373-0.111-0.457-0.289c-0.472-0.995-11.486-24.508-6.281-37.094
			c0.086-0.209,0.297-0.338,0.526-0.309c13.529,1.576,28.716,22.637,29.356,23.533c0.124,0.173,0.126,0.405,0.005,0.58
			c-0.12,0.176-0.339,0.258-0.544,0.203c-5.853-1.519-13.124,2.806-13.197,2.849c-0.084,0.048-7.4,4.295-8.919,10.149
			c-0.053,0.206-0.23,0.356-0.442,0.376C37.392,46.926,37.376,46.926,37.36,46.926z M31.414,10.288
			c-4.07,10.692,3.716,29.813,5.872,34.736c2.205-5.577,8.676-9.329,8.97-9.497c0.28-0.17,6.708-3.997,12.652-3.21
			C55.655,28.039,42.733,11.934,31.414,10.288z"/>
	</g>
	<g>
		<path fill="#136296" d="M16.765,54.558c-0.023,0-0.046-0.001-0.069-0.005c-0.198-0.027-0.362-0.169-0.417-0.361
			c-4.699-16.353-0.498-27.685,3.853-34.313C24.851,12.691,30.6,9.43,30.843,9.295c0.188-0.104,0.421-0.079,0.582,0.064
			c0.161,0.143,0.214,0.372,0.131,0.571c-5.034,12.176,6.147,36.036,6.26,36.275c0.083,0.176,0.058,0.384-0.065,0.535
			c-0.123,0.151-0.322,0.218-0.511,0.172c-13.312-3.223-19.98,7.299-20.046,7.405C17.102,54.468,16.939,54.558,16.765,54.558z
			 M30.115,10.966c-1.943,1.35-5.858,4.457-9.164,9.508c-4.13,6.309-8.114,17.013-3.98,32.431c1.965-2.511,8.474-9.38,19.506-7.196
			C34.49,41.273,26.611,22.496,30.115,10.966z"/>
	</g>
	<g>
		<path fill="#136296" d="M60.093,33.566c-0.161,0-0.316-0.078-0.411-0.212c-0.154-0.216-15.566-21.591-28.651-23.116
			c-0.213-0.025-0.388-0.182-0.435-0.393c-0.046-0.21,0.045-0.427,0.228-0.54c0.236-0.146,5.883-3.582,14.459-4.208
			c7.906-0.578,19.853,1.266,31.855,13.326c0.141,0.142,0.185,0.354,0.113,0.54c-0.073,0.186-0.248,0.313-0.448,0.322
			c-0.512,0.024-12.571,0.737-16.222,13.91c-0.052,0.188-0.207,0.329-0.399,0.363C60.151,33.564,60.122,33.566,60.093,33.566z
			 M32.636,9.483C44.416,12.029,56.99,28.049,59.9,31.943c3.458-10.701,12.626-13.046,15.776-13.541
			C64.198,7.273,52.892,5.555,45.356,6.106C39.348,6.545,34.752,8.445,32.636,9.483z"/>
	</g>
	<g>
		<path fill="#136296" d="M28.649,11.913c-0.026,0-0.053-0.002-0.079-0.006c-0.137-0.022-0.259-0.099-0.338-0.213
			c-0.055-0.079-0.095-0.138-0.131-0.2c-0.969-1.648-0.416-3.777,1.231-4.745c0.798-0.47,1.731-0.6,2.628-0.367
			c0.896,0.233,1.648,0.801,2.117,1.599c0.034,0.057,0.064,0.116,0.093,0.176c0.062,0.124,0.079,0.287,0.031,0.417
			c-0.047,0.131-0.138,0.254-0.265,0.309c-1.641,0.708-2.574,1.28-2.582,1.285c-0.006,0.004-0.013,0.007-0.019,0.011
			c-0.009,0.005-0.962,0.543-2.379,1.631C28.868,11.877,28.76,11.913,28.649,11.913z M31.085,7.28c-0.432,0-0.858,0.115-1.24,0.34
			c-1.06,0.623-1.48,1.925-1.034,3.033c1.16-0.858,1.923-1.296,2.022-1.352c0.097-0.059,0.852-0.513,2.165-1.109
			c-0.328-0.408-0.777-0.698-1.292-0.832C31.501,7.306,31.292,7.28,31.085,7.28z M31.089,9.736h0.005H31.089z"/>
	</g>
	<g>
		<path fill="#136296" d="M65.769,68.913c-0.173,0-0.341-0.088-0.436-0.248L46.073,36.224c-0.142-0.24-0.063-0.55,0.177-0.693
			c0.24-0.143,0.55-0.063,0.693,0.177L66.203,68.15c0.142,0.24,0.063,0.55-0.177,0.693C65.946,68.89,65.857,68.913,65.769,68.913z"
			/>
	</g>
	<g>
		<path fill="#136296" d="M49.512,94.995c-0.028,0-0.056-0.002-0.085-0.007c-0.275-0.046-0.461-0.307-0.414-0.582
			c0.015-0.089,1.564-8.94,7.919-17.656c5.87-8.052,17.152-17.65,37.563-17.65c0.279,0,0.506,0.226,0.506,0.506
			c0,0.279-0.226,0.506-0.506,0.506c-19.965,0-30.989,9.354-36.721,17.201c-6.228,8.526-7.749,17.176-7.763,17.263
			C49.968,94.821,49.755,94.995,49.512,94.995z"/>
	</g>
	<g>
		<path fill="#136296" d="M53.934,82.797H5.506C5.226,82.797,5,82.571,5,82.292s0.226-0.506,0.506-0.506h48.429
			c0.279,0,0.506,0.226,0.506,0.506S54.214,82.797,53.934,82.797z"/>
	</g>
	<g>
		<g>
			<path fill="#136296" d="M7.275,86.484h-1.77C5.226,86.484,5,86.258,5,85.979s0.226-0.506,0.506-0.506h1.77
				c0.279,0,0.506,0.226,0.506,0.506S7.555,86.484,7.275,86.484z"/>
		</g>
		<g>
			<path fill="#136296" d="M46.976,86.484h-3.308c-0.279,0-0.506-0.226-0.506-0.506s0.226-0.506,0.506-0.506h3.308
				c0.279,0,0.506,0.226,0.506,0.506S47.255,86.484,46.976,86.484z M40.359,86.484H37.05c-0.279,0-0.506-0.226-0.506-0.506
				s0.226-0.506,0.506-0.506h3.309c0.279,0,0.506,0.226,0.506,0.506S40.639,86.484,40.359,86.484z M33.742,86.484h-3.308
				c-0.279,0-0.506-0.226-0.506-0.506s0.226-0.506,0.506-0.506h3.308c0.279,0,0.506,0.226,0.506,0.506S34.022,86.484,33.742,86.484z
				 M27.126,86.484h-3.309c-0.279,0-0.506-0.226-0.506-0.506s0.226-0.506,0.506-0.506h3.309c0.279,0,0.506,0.226,0.506,0.506
				S27.405,86.484,27.126,86.484z M20.509,86.484h-3.308c-0.279,0-0.506-0.226-0.506-0.506s0.226-0.506,0.506-0.506h3.308
				c0.279,0,0.506,0.226,0.506,0.506S20.788,86.484,20.509,86.484z M13.892,86.484h-3.308c-0.279,0-0.506-0.226-0.506-0.506
				s0.226-0.506,0.506-0.506h3.308c0.279,0,0.506,0.226,0.506,0.506S14.171,86.484,13.892,86.484z"/>
		</g>
		<g>
			<path fill="#136296" d="M52.054,86.484h-1.77c-0.279,0-0.506-0.226-0.506-0.506s0.226-0.506,0.506-0.506h1.77
				c0.279,0,0.506,0.226,0.506,0.506S52.334,86.484,52.054,86.484z"/>
		</g>
	</g>
	<g>
		<g>
			<path fill="#136296" d="M8.034,90.863H5.506C5.226,90.863,5,90.637,5,90.358s0.226-0.506,0.506-0.506h2.528
				c0.279,0,0.506,0.226,0.506,0.506S8.313,90.863,8.034,90.863z"/>
		</g>
		<g>
			<path fill="#136296" d="M42.214,90.863h-5.697c-0.279,0-0.506-0.226-0.506-0.506s0.226-0.506,0.506-0.506h5.697
				c0.279,0,0.506,0.226,0.506,0.506S42.494,90.863,42.214,90.863z M30.821,90.863h-5.697c-0.279,0-0.506-0.226-0.506-0.506
				s0.226-0.506,0.506-0.506h5.697c0.279,0,0.506,0.226,0.506,0.506S31.1,90.863,30.821,90.863z M19.427,90.863H13.73
				c-0.279,0-0.506-0.226-0.506-0.506s0.226-0.506,0.506-0.506h5.697c0.279,0,0.506,0.226,0.506,0.506S19.706,90.863,19.427,90.863z
				"/>
		</g>
		<g>
			<path fill="#136296" d="M50.439,90.863h-2.528c-0.279,0-0.506-0.226-0.506-0.506s0.226-0.506,0.506-0.506h2.528
				c0.279,0,0.506,0.226,0.506,0.506S50.719,90.863,50.439,90.863z"/>
		</g>
	</g>
	<g>
		<g>
			<path fill="#136296" d="M7.275,94.995h-1.77C5.226,94.995,5,94.769,5,94.49s0.226-0.506,0.506-0.506h1.77
				c0.279,0,0.506,0.226,0.506,0.506S7.555,94.995,7.275,94.995z"/>
		</g>
		<g>
			<path fill="#136296" d="M44.063,94.995h-3.679c-0.279,0-0.506-0.226-0.506-0.506s0.226-0.506,0.506-0.506h3.679
				c0.279,0,0.506,0.226,0.506,0.506S44.342,94.995,44.063,94.995z M36.705,94.995h-3.679c-0.279,0-0.506-0.226-0.506-0.506
				s0.226-0.506,0.506-0.506h3.679c0.279,0,0.506,0.226,0.506,0.506S36.985,94.995,36.705,94.995z M29.348,94.995h-3.679
				c-0.279,0-0.506-0.226-0.506-0.506s0.226-0.506,0.506-0.506h3.679c0.279,0,0.506,0.226,0.506,0.506S29.627,94.995,29.348,94.995z
				 M21.99,94.995h-3.679c-0.279,0-0.506-0.226-0.506-0.506s0.226-0.506,0.506-0.506h3.679c0.279,0,0.506,0.226,0.506,0.506
				S22.27,94.995,21.99,94.995z M14.632,94.995h-3.679c-0.279,0-0.506-0.226-0.506-0.506s0.226-0.506,0.506-0.506h3.679
				c0.279,0,0.506,0.226,0.506,0.506S14.912,94.995,14.632,94.995z"/>
		</g>
		<g>
			<path fill="#136296" d="M49.512,94.995h-1.77c-0.279,0-0.506-0.226-0.506-0.506s0.226-0.506,0.506-0.506h1.77
				c0.279,0,0.506,0.226,0.506,0.506S49.791,94.995,49.512,94.995z"/>
		</g>
	</g>
</g>
</svg>
